<svg width="48" height="48" viewBox="0 0 48 48" fill="none" xmlns="http://www.w3.org/2000/svg">
<g clip-path="url(#clip0_2421_1687)">
<path d="M47.7603 26.6409C47.7544 26.6193 47.7489 26.5973 47.7419 26.576C46.903 23.5226 44.1036 21.2719 40.7872 21.2719H39.8574L37.0391 14.553C36.2188 12.5963 34.3174 11.3325 32.1959 11.3325H26.9415V9.11658C26.9415 8.32776 26.3018 7.68799 25.5129 7.68799H6.66333C2.98914 7.68799 0.00012207 10.677 0.00012207 14.3512V34.2687C0.00012207 35.0579 0.639893 35.6973 1.42871 35.6973H5.7793C6.4209 38.2922 8.76831 40.2225 11.5585 40.2225C14.349 40.2225 16.696 38.2922 17.3376 35.6973H30.6622C31.3042 38.2922 33.6512 40.2225 36.4414 40.2225C39.2319 40.2225 41.579 38.2922 42.2206 35.6973H46.5715C47.3604 35.6973 48.0001 35.0579 48.0001 34.2687V28.4847C48.0001 27.8475 47.9163 27.2297 47.7603 26.6409ZM34.4045 15.6582L36.7589 21.2719H26.9415V14.1893H32.1959C33.1635 14.1893 34.0303 14.7661 34.4045 15.6582ZM6.66333 10.5452H24.0844V21.2719H2.8573V14.3512C2.8573 12.2524 4.56458 10.5452 6.66333 10.5452ZM2.8573 24.129H24.0844V32.8405H17.3376C16.696 30.2455 14.349 28.3152 11.5585 28.3152C8.76831 28.3152 6.42126 30.2455 5.7793 32.8405H2.8573V24.129ZM14.6552 34.2687C14.6552 35.9763 13.2661 37.3654 11.5585 37.3654C9.8512 37.3654 8.46216 35.9763 8.46216 34.2687C8.46216 32.5614 9.8512 31.1724 11.5585 31.1724C13.2661 31.1724 14.6552 32.5614 14.6552 34.2687ZM39.5381 34.2687C39.5381 35.9763 38.149 37.3654 36.4414 37.3654C34.7341 37.3654 33.3451 35.9763 33.3451 34.2687C33.3451 32.5614 34.7341 31.1724 36.4414 31.1724C38.149 31.1724 39.5381 32.5614 39.5381 34.2687ZM45.1429 32.8405H42.2209C41.579 30.2455 39.2319 28.3152 36.4418 28.3152C33.6512 28.3152 31.3042 30.2455 30.6626 32.8405H26.9415V24.129H40.7876C42.0781 24.129 43.239 24.6937 44.0374 25.5887H42.9838C42.1949 25.5887 41.5552 26.2285 41.5552 27.0173C41.5552 27.8062 42.1949 28.4459 42.9838 28.4459H45.1422C45.1422 28.4587 45.1429 28.4716 45.1429 28.4847V32.8405Z" fill="white"/>
<path d="M8.99243 17.3157H17.9492C18.738 17.3157 19.3778 16.6763 19.3778 15.8871C19.3778 15.0983 18.738 14.4585 17.9492 14.4585H8.99243C8.20361 14.4585 7.56384 15.0983 7.56384 15.8871C7.56384 16.6763 8.20361 17.3157 8.99243 17.3157Z" fill="white"/>
</g>
<defs>
<clipPath id="clip0_2421_1687">
<rect width="48" height="48" fill="white"/>
</clipPath>
</defs>
</svg>
