<svg width="48" height="48" viewBox="0 0 48 48" fill="none" xmlns="http://www.w3.org/2000/svg">
<mask id="mask0_2421_1719" style="mask-type:luminance" maskUnits="userSpaceOnUse" x="0" y="0" width="48" height="48">
<path d="M-3.05176e-05 3.8147e-06H48V48H-3.05176e-05V3.8147e-06Z" fill="white"/>
</mask>
<g mask="url(#mask0_2421_1719)">
<path d="M30.5798 29.08V30.5314C30.5798 32.1347 29.2802 33.4342 27.6771 33.4342C26.0738 33.4342 24.7742 32.1347 24.7742 30.5314V29.08H18.9201V23.226H20.3715C21.9747 23.226 23.2744 21.9263 23.2744 20.3231C23.2744 18.7199 21.9747 17.4203 20.3715 17.4203H18.9201V11.5662H1.40634V46.5938H36.4339V29.08H30.5798Z" stroke="white" stroke-width="2.8125" stroke-miterlimit="10"/>
<path d="M18.9199 29.08V34.9341H17.4686C15.8653 34.9341 14.5657 36.2337 14.5657 37.8369C14.5657 39.4401 15.8653 40.7397 17.4686 40.7397H18.9199V46.5938" stroke="white" stroke-width="2.8125" stroke-miterlimit="10"/>
<path d="M1.40616 29.0801H7.26019V27.6286C7.26019 26.0254 8.55985 24.7258 10.1631 24.7258C11.7663 24.7258 13.0659 26.0254 13.0659 27.6286V29.0801H18.9199" stroke="white" stroke-width="2.8125" stroke-miterlimit="10"/>
<path d="M29.0799 1.4059V7.25993H30.5312C32.1346 7.25993 33.4341 8.55958 33.4341 10.1628C33.4341 11.7659 32.1346 13.0657 30.5312 13.0657H29.0799V18.9196H34.9339V20.3711C34.9339 21.9743 36.2336 23.2739 37.8368 23.2739C39.4399 23.2739 40.7396 21.9743 40.7396 20.3711V18.9196H46.5936V1.4059H29.0799Z" stroke="white" stroke-width="2.8125" stroke-miterlimit="10"/>
</g>
</svg>
