<svg width="48" height="37" viewBox="0 0 48 37" fill="none" xmlns="http://www.w3.org/2000/svg">
<path d="M29.2643 27.9459H5.15634C3.08531 27.9459 1.40634 26.267 1.40634 24.1959V5.15625C1.40634 3.08522 3.08531 1.40625 5.15634 1.40625H35.7588C37.8298 1.40625 39.5088 3.08522 39.5088 5.15625V7.677" stroke="white" stroke-width="2.8125" stroke-miterlimit="10"/>
<path d="M1.40625 7.6774L1.40625 14.2319L39.5087 14.2319V7.6774L1.40625 7.6774Z" stroke="white" stroke-width="2.8125" stroke-miterlimit="10"/>
<path d="M14.7881 21.1113H5.6987" stroke="white" stroke-width="2.8125" stroke-miterlimit="10"/>
<path d="M20.4575 21.1113H17.645" stroke="white" stroke-width="2.8125" stroke-miterlimit="10"/>
<path d="M43.3971 31.6978L37.7876 35.0848L32.1782 31.6978C30.1942 30.4999 28.9815 28.3512 28.9815 26.0336V14.2319H46.5938V26.0335C46.5938 28.3512 45.3811 30.4998 43.3971 31.6978Z" stroke="white" stroke-width="2.8125" stroke-miterlimit="10"/>
<path d="M34.4108 22.7002L36.893 25.1824L41.1482 20.9272" stroke="white" stroke-width="2.8125" stroke-miterlimit="10"/>
</svg>
