<svg width="34" height="33" viewBox="0 0 34 33" fill="none" xmlns="http://www.w3.org/2000/svg">
    <path d="M14.8694 1.38144C15.4681 -0.461181 18.0749 -0.461176 18.6736 1.38144L21.2618 9.347C21.5295 10.1711 22.2974 10.729 23.1639 10.729H31.5394C33.4768 10.729 34.2824 13.2082 32.7149 14.347L25.939 19.27C25.238 19.7793 24.9447 20.682 25.2125 21.5061L27.8006 29.4716C28.3994 31.3142 26.2904 32.8465 24.723 31.7077L17.9471 26.7847C17.2461 26.2754 16.2969 26.2754 15.5959 26.7847L8.82 31.7077C7.25257 32.8465 5.14362 31.3142 5.74232 29.4716L8.33049 21.5061C8.59824 20.682 8.30492 19.7793 7.60395 19.27L0.828032 14.347C-0.739395 13.2082 0.0661607 10.729 2.00361 10.729H10.3791C11.2455 10.729 12.0135 10.171 12.2812 9.347L14.8694 1.38144Z" fill="#EAE0D5"/>
</svg>