<svg width="20" height="18" viewBox="0 0 20 18" fill="none" xmlns="http://www.w3.org/2000/svg">
<g clip-path="url(#clip0_86_820)">
<path d="M18.9133 3.61919C18.2454 3.8905 17.5279 4.07382 16.7735 4.15668C17.5519 3.72976 18.1342 3.05784 18.4118 2.2663C17.6805 2.66446 16.8802 2.94472 16.0456 3.0949C15.4843 2.54558 14.7409 2.18148 13.9308 2.05913C13.1207 1.93678 12.2892 2.06303 11.5653 2.41827C10.8415 2.77352 10.2659 3.33788 9.92779 4.02374C9.58972 4.70961 9.50813 5.47859 9.69568 6.21132C8.21395 6.14312 6.76442 5.79009 5.44116 5.17513C4.11791 4.56017 2.9505 3.69704 2.0147 2.64174C1.69472 3.1477 1.51074 3.73432 1.51074 4.35907C1.51038 4.92148 1.66147 5.47529 1.95061 5.97134C2.23974 6.4674 2.65798 6.89036 3.16821 7.20271C2.57647 7.18545 1.9978 7.03888 1.48034 6.77521V6.8192C1.48028 7.60802 1.77794 8.37256 2.32282 8.9831C2.8677 9.59364 3.62623 10.0126 4.4697 10.1688C3.92077 10.305 3.34526 10.325 2.78664 10.2275C3.02462 10.9062 3.48818 11.4997 4.11242 11.9249C4.73667 12.3502 5.49035 12.5858 6.26796 12.5989C4.94793 13.5488 3.3177 14.064 1.63953 14.0618C1.34226 14.0618 1.04524 14.0459 0.75 14.0141C2.45344 15.0181 4.43638 15.5509 6.46154 15.5488C13.317 15.5488 17.0647 10.3441 17.0647 5.83002C17.0647 5.68336 17.0607 5.53524 17.0535 5.38858C17.7825 4.90534 18.4117 4.30693 18.9117 3.62139L18.9133 3.61919Z" fill="#424242"/>
</g>
<defs>
<clipPath id="clip0_86_820">
<rect width="19.1985" height="17.5986" fill="white"/>
</clipPath>
</defs>
</svg>
