<svg width="48" height="48" viewBox="0 0 48 48" fill="none" xmlns="http://www.w3.org/2000/svg">
<path d="M19.7811 19.7803L22.5936 22.5928L28.2186 16.9678" stroke="white" stroke-width="2.8125" stroke-miterlimit="10" stroke-linecap="round" stroke-linejoin="round"/>
<mask id="mask0_2421_1692" style="mask-type:luminance" maskUnits="userSpaceOnUse" x="-1" y="0" width="49" height="48">
<path d="M-0.000152588 0H47.9998V48H-0.000152588V0Z" fill="white"/>
</mask>
<g mask="url(#mask0_2421_1692)">
<path d="M33.8435 19.7817C33.8435 25.2183 29.4364 29.6255 23.9998 29.6255C18.5632 29.6255 14.156 25.2183 14.156 19.7817C14.156 14.3452 18.5632 9.93798 23.9998 9.93798C29.4364 9.93798 33.8435 14.3452 33.8435 19.7817Z" stroke="white" stroke-width="2.8125" stroke-miterlimit="10" stroke-linecap="round" stroke-linejoin="round"/>
<path d="M23.9998 1.40674L28.7799 5.07011L34.7452 4.99193L36.5143 10.6895L41.3863 14.1325L39.4685 19.7817L41.3863 25.4309L36.5143 28.874L34.7452 34.5715L28.7799 34.4934L23.9998 38.063L19.2196 34.4934L13.2543 34.5715L11.4853 28.874L6.61327 25.4309L8.53102 19.7817L6.61327 14.1325L11.4853 10.6895L13.2543 4.99193L19.2196 5.07011L23.9998 1.40674Z" stroke="white" stroke-width="2.8125" stroke-miterlimit="10" stroke-linecap="round" stroke-linejoin="round"/>
<path d="M21.7541 36.386L16.9685 46.5942L14.3579 42.1539L9.34167 42.892L13.2784 34.5713" stroke="white" stroke-width="2.8125" stroke-miterlimit="10" stroke-linecap="round" stroke-linejoin="round"/>
<path d="M26.2326 36.3956L31.0136 46.5942L33.6241 42.1539L38.6405 42.892L34.7035 34.5711" stroke="white" stroke-width="2.8125" stroke-miterlimit="10" stroke-linecap="round" stroke-linejoin="round"/>
</g>
</svg>
