<svg width="177" height="41" viewBox="0 0 177 41" fill="none" xmlns="http://www.w3.org/2000/svg">
<path d="M10.5873 16.373C8.48886 15.7083 6.25424 15.3496 3.93571 15.3496C-8.21525 15.3496 -18.0654 25.2 -18.0654 37.3508C-18.0654 38.5704 -17.9662 39.7669 -17.7754 40.9324H-4.10536C-4.59332 39.8384 -4.86463 38.6263 -4.86463 37.3508C-4.86463 32.4905 -0.924616 28.5503 3.93571 28.5503C6.5922 28.5503 8.97365 29.7273 10.5873 31.5882V16.373Z" fill="#525252"/>
<path d="M-28.1855 0C-27.1675 9.2097 -19.3594 16.373 -9.87832 16.373C-0.397371 16.373 7.41076 9.2097 8.42878 0H-4.74393C-5.55716 2.03866 -7.54959 3.47925 -9.87832 3.47925C-12.2072 3.47925 -14.1995 2.03866 -15.0129 0H-28.1855Z" fill="#525252"/>
<path d="M35.2646 29.3117C30.5888 29.3117 27.5236 26.7401 27.5236 21.9085V10.2971H31.0044V21.9085C31.0044 24.8698 32.563 26.2465 35.2646 26.2465C37.9401 26.2465 39.4987 24.8698 39.4987 21.9085V10.2971H43.0055V21.9085C43.0055 26.7401 39.9403 29.3117 35.2646 29.3117ZM45.7387 29V15.4923H48.9078V17.9081C49.817 16.0118 51.2716 15.3365 52.9861 15.3365H54.0511V18.3497H52.8562C50.5703 18.3497 49.0117 19.3108 49.0117 22.454V29H45.7387ZM56.114 29V10.2971H59.387V17.1808C60.2962 15.9339 61.6729 15.1806 63.5432 15.1806C67.4656 15.1806 69.5957 18.2198 69.5957 22.2462C69.5957 26.2725 67.4656 29.3117 63.5432 29.3117C61.595 29.3117 60.1663 28.4805 59.2571 27.1297V29H56.114ZM59.3351 22.2462C59.3351 24.8438 60.4261 26.5842 62.7899 26.5842C65.1797 26.5842 66.2707 24.8438 66.2707 22.2462C66.2707 19.6485 65.1797 17.9081 62.7899 17.9081C60.4261 17.9081 59.3351 19.6485 59.3351 22.2462ZM80.3361 29V27.4414C79.1671 28.8441 77.7385 29.3117 76.05 29.3117C73.1147 29.3117 71.1145 27.857 71.1145 25.2334C71.1145 22.8436 72.803 21.6487 76.3098 21.0513L80.2322 20.3499V19.5706C80.2322 18.3497 79.5048 17.7003 77.7644 17.7003C76.2838 17.7003 75.0369 18.3237 74.959 19.8044H71.7379C71.7899 16.5833 74.4914 15.1806 77.7385 15.1806C81.5829 15.1806 83.4273 16.7392 83.4273 19.2069V29H80.3361ZM74.4654 25.1295C74.4654 26.1946 75.1928 26.8959 76.7773 26.8959C78.4918 26.8959 80.2322 25.9867 80.2322 23.7528V22.5579L76.9072 23.2333C75.3746 23.545 74.4654 23.9086 74.4654 25.1295ZM94.8578 20.8694C94.8578 19.2329 94.1305 18.038 92.2602 18.038C91.1432 18.038 89.3768 18.6614 89.1431 21.0253V29H85.87V15.4923H89.0392V17.3366C89.9743 16.0898 91.377 15.1806 93.2993 15.1806C96.4164 15.1806 98.1049 17.3107 98.1049 20.4798V29H94.8578V20.8694ZM108.16 29.3117C103.485 29.3117 100.29 27.0778 100.186 22.7137H103.64C103.744 25.6491 105.874 26.4543 108.264 26.4543C110.498 26.4543 112.083 25.5192 112.083 23.7788C112.083 22.454 111.329 21.7266 107.381 20.9473C102.835 20.1161 100.679 18.5835 100.679 15.2066C100.679 12.1154 103.433 9.98534 107.615 9.98534C112.654 9.98534 115.07 12.505 115.2 16.2456H111.823C111.693 13.9597 110.394 12.8427 107.615 12.8427C105.589 12.8427 104.264 13.7259 104.264 15.1027C104.264 16.4794 104.861 17.2327 108.654 17.9601C114.187 18.9731 115.668 20.7136 115.668 23.6229C115.668 27.2596 112.55 29.3117 108.16 29.3117ZM117.706 15.4923H120.849V17.3626C121.759 16.0118 123.187 15.1806 125.135 15.1806C129.058 15.1806 131.188 18.2198 131.188 22.2462C131.188 26.2725 129.058 29.3117 125.135 29.3117C123.265 29.3117 121.888 28.5584 120.979 27.3115V34.1953H117.706V15.4923ZM120.927 22.2462C120.927 24.8438 122.018 26.5842 124.382 26.5842C126.772 26.5842 127.863 24.8438 127.863 22.2462C127.863 19.6485 126.772 17.9081 124.382 17.9081C122.018 17.9081 120.927 19.6485 120.927 22.2462ZM141.928 29V27.4414C140.759 28.8441 139.331 29.3117 137.642 29.3117C134.707 29.3117 132.707 27.857 132.707 25.2334C132.707 22.8436 134.395 21.6487 137.902 21.0513L141.824 20.3499V19.5706C141.824 18.3497 141.097 17.7003 139.357 17.7003C137.876 17.7003 136.629 18.3237 136.551 19.8044H133.33C133.382 16.5833 136.084 15.1806 139.331 15.1806C143.175 15.1806 145.02 16.7392 145.02 19.2069V29H141.928ZM136.058 25.1295C136.058 26.1946 136.785 26.8959 138.37 26.8959C140.084 26.8959 141.824 25.9867 141.824 23.7528V22.5579L138.499 23.2333C136.967 23.545 136.058 23.9086 136.058 25.1295ZM153.567 29.3117C149.436 29.3117 146.943 26.2725 146.943 22.2462C146.943 18.2198 149.436 15.1806 153.567 15.1806C157.281 15.1806 159.411 17.2847 159.827 20.3239H156.554C156.242 18.8173 155.177 17.9081 153.567 17.9081C151.359 17.9081 150.268 19.6485 150.268 22.2462C150.268 24.8438 151.359 26.5842 153.567 26.5842C155.229 26.5842 156.268 25.6231 156.554 24.0125H159.827C159.437 27.1297 157.203 29.3117 153.567 29.3117ZM167.95 29.3117C163.768 29.3117 161.274 26.2725 161.274 22.2462C161.274 18.2198 163.768 15.1806 167.95 15.1806C172.132 15.1806 174.626 18.1159 174.626 22.5059V23.2852H164.521C164.807 25.3893 166.002 26.7401 167.95 26.7401C169.535 26.7401 170.6 26.0647 171.171 24.8698H174.366C173.483 27.5453 171.171 29.3117 167.95 29.3117ZM164.547 20.9473H171.327C170.989 18.9731 169.82 17.7523 167.95 17.7523C166.08 17.7523 164.911 18.9731 164.547 20.9473Z" fill="#525252"/>
</svg>
