<svg width="190" height="61" viewBox="0 0 190 61" fill="none" xmlns="http://www.w3.org/2000/svg">
<path d="M30.425 0C26.4296 0 22.4731 0.787051 18.7818 2.31595C15.0905 3.84502 11.7366 6.08604 8.91122 8.91122C6.08604 11.7366 3.84502 15.0905 2.31595 18.7818C0.787051 22.4731 0 26.4296 0 30.425C0 34.4204 0.787051 38.3769 2.31595 42.0682C3.84502 45.7595 6.08604 49.1134 8.91122 51.9388C11.7366 54.764 15.0905 57.005 18.7818 58.534C22.4731 60.0629 26.4296 60.85 30.425 60.85V45.6375C28.4272 45.6375 26.4491 45.2441 24.6034 44.4794C22.7577 43.715 21.0807 42.5945 19.6681 41.1819C18.2555 39.7693 17.135 38.0923 16.3706 36.2466C15.6059 34.4009 15.2125 32.4228 15.2125 30.425C15.2125 28.4272 15.6059 26.4491 16.3706 24.6034C17.135 22.7577 18.2555 21.0807 19.6681 19.6681C21.0807 18.2555 22.7577 17.135 24.6034 16.3706C26.4491 15.6059 28.4272 15.2125 30.425 15.2125V0Z" fill="#525252"/>
<path d="M30.4258 40.5664C36.0269 40.5664 40.5674 36.026 40.5674 30.4248C40.5674 24.8237 36.0269 20.2832 30.4258 20.2832C24.8246 20.2832 20.2842 24.8237 20.2842 30.4248C20.2842 36.026 24.8246 40.5664 30.4258 40.5664Z" fill="#525252"/>
<path d="M0 30.4253C0 34.4207 0.787051 38.3772 2.31595 42.0685C3.84502 45.7598 6.08604 49.1137 8.91122 51.9391C11.7366 54.7642 15.0905 57.0053 18.7818 58.5343C22.4731 60.0632 26.4296 60.8503 30.425 60.8503C34.4204 60.8503 38.3769 60.0632 42.0682 58.5343C45.7596 57.0053 49.1134 54.7642 51.9388 51.9391C54.764 49.1137 57.005 45.7598 58.5341 42.0685C60.063 38.3772 60.85 34.4207 60.85 30.4253H45.6375C45.6375 32.4231 45.2441 34.4012 44.4794 36.2469C43.715 38.0926 42.5945 39.7696 41.1819 41.1822C39.7693 42.5948 38.0923 43.7153 36.2466 44.4797C34.4009 45.2444 32.4228 45.6378 30.425 45.6378C28.4272 45.6378 26.4491 45.2444 24.6034 44.4797C22.7577 43.7153 21.0807 42.5948 19.6681 41.1822C18.2555 39.7696 17.135 38.0926 16.3706 36.2469C15.6059 34.4012 15.2125 32.4231 15.2125 30.4253H0Z" fill="#525252"/>
<path d="M40.5676 30.425C40.5676 27.7352 39.499 25.1557 37.5972 23.2537C35.6952 21.3517 33.1157 20.2832 30.426 20.2832C27.7362 20.2832 25.1567 21.3517 23.2547 23.2537C21.3527 25.1557 20.2842 27.7352 20.2842 30.425H30.426H40.5676Z" fill="#525252"/>
<path d="M86.5144 41.237C80.4359 41.237 77.2668 36.821 77.2668 31.5738C77.2668 26.3266 80.4359 21.9106 86.5144 21.9106C92.5668 21.9106 95.7619 26.3266 95.7619 31.5738C95.7619 36.821 92.5668 41.237 86.5144 41.237ZM80.9035 31.5738C80.9035 35.1066 82.5919 38.1199 86.5144 38.1199C90.4368 38.1199 92.1252 35.1066 92.1252 31.5738C92.1252 28.041 90.4368 25.0278 86.5144 25.0278C82.5919 25.0278 80.9035 28.041 80.9035 31.5738ZM106.5 40.9253V39.3667C105.331 40.7694 103.902 41.237 102.214 41.237C99.2783 41.237 97.2781 39.7823 97.2781 37.1587C97.2781 34.7689 98.9665 33.574 102.473 32.9765L106.396 32.2752V31.4959C106.396 30.275 105.668 29.6256 103.928 29.6256C102.447 29.6256 101.201 30.249 101.123 31.7297H97.9015C97.9535 28.5086 100.655 27.1059 103.902 27.1059C107.747 27.1059 109.591 28.6645 109.591 31.1322V40.9253H106.5ZM100.629 37.0548C100.629 38.1199 101.356 38.8212 102.941 38.8212C104.655 38.8212 106.396 37.912 106.396 35.6781V34.4832L103.071 35.1586C101.538 35.4703 100.629 35.8339 100.629 37.0548ZM112.034 40.9253V22.2224H115.307V33.0545L120.736 27.4176H124.658L119.541 32.5869L125.022 40.9253H121.203L117.281 34.8728L115.307 36.873V40.9253H112.034ZM135.169 41.237C129.091 41.237 125.922 36.821 125.922 31.5738C125.922 26.3266 129.091 21.9106 135.169 21.9106C139.767 21.9106 142.78 24.846 143.404 28.7684H139.871C139.403 26.5604 137.689 25.0278 135.169 25.0278C131.247 25.0278 129.558 28.041 129.558 31.5738C129.558 35.1066 131.247 38.1199 135.169 38.1199C137.871 38.1199 139.559 36.3275 139.975 33.8857H143.482C142.988 38.0679 139.975 41.237 135.169 41.237ZM145.722 40.9253V27.4176H148.891V29.8334C149.8 27.9371 151.255 27.2618 152.969 27.2618H154.034V30.275H152.839C150.553 30.275 148.995 31.2361 148.995 34.3793V40.9253H145.722ZM164.591 40.9253V39.3667C163.422 40.7694 161.994 41.237 160.305 41.237C157.37 41.237 155.37 39.7823 155.37 37.1587C155.37 34.7689 157.058 33.574 160.565 32.9765L164.487 32.2752V31.4959C164.487 30.275 163.76 29.6256 162.02 29.6256C160.539 29.6256 159.292 30.249 159.214 31.7297H155.993C156.045 28.5086 158.747 27.1059 161.994 27.1059C165.838 27.1059 167.682 28.6645 167.682 31.1322V40.9253H164.591ZM158.721 37.0548C158.721 38.1199 159.448 38.8212 161.032 38.8212C162.747 38.8212 164.487 37.912 164.487 35.6781V34.4832L161.162 35.1586C159.63 35.4703 158.721 35.8339 158.721 37.0548ZM171.502 25.6772C171.502 22.9497 172.957 22.2224 175.243 22.2224H178.178V24.7421H176.048C175.087 24.7421 174.749 25.1317 174.749 26.0149V27.4176H178.178V29.9373H174.749V40.9253H171.502V29.9373H169.138V27.4176H171.502V25.6772ZM181.624 23.2614H184.871V27.4176H188.299V29.9373H184.871V37.1328C184.871 38.0159 185.208 38.4056 186.169 38.4056H188.299V40.9253H185.364C183.078 40.9253 181.624 40.198 181.624 37.4704V29.9373H179.26V27.4176H181.624V23.2614Z" fill="#525252"/>
</svg>
