<svg width="198" height="52" viewBox="0 0 198 52" fill="none" xmlns="http://www.w3.org/2000/svg">
<path fill-rule="evenodd" clip-rule="evenodd" d="M25.9763 51.9526C40.3227 51.9526 51.9526 40.3226 51.9526 25.9763C51.9526 11.63 40.3227 0 25.9763 0C11.63 0 0 11.63 0 25.9763C0 40.3226 11.63 51.9526 25.9763 51.9526ZM34.08 12.1009C34.4745 10.6997 33.1147 9.87116 31.8729 10.7559L14.5378 23.1054C13.1911 24.0648 13.4029 25.9763 14.856 25.9763H19.4208V25.9409H28.3174L21.0684 28.4987L17.8726 39.8518C17.4782 41.2529 18.8378 42.0814 20.0797 41.1967L37.4149 28.8473C38.7616 27.8879 38.5496 25.9763 37.0967 25.9763H30.1742L34.08 12.1009Z" fill="#525252"/>
<path d="M81.3315 36.4761V28.4754H72.6294V36.4761H69.1486V17.7731H72.6294V25.3063H81.3315V17.7731H84.8383V36.4761H81.3315ZM94.0745 36.7878C89.7365 36.7878 87.2427 33.7486 87.2427 29.7222C87.2427 25.6959 89.7365 22.6567 94.0745 22.6567C98.4125 22.6567 100.906 25.6959 100.906 29.7222C100.906 33.7486 98.4125 36.7878 94.0745 36.7878ZM90.5677 29.7222C90.5677 32.3199 91.6587 34.0603 94.0745 34.0603C96.4903 34.0603 97.5813 32.3199 97.5813 29.7222C97.5813 27.1246 96.4903 25.3842 94.0745 25.3842C91.6587 25.3842 90.5677 27.1246 90.5677 29.7222ZM120.047 28.3455C120.047 26.709 119.319 25.5141 117.735 25.5141C116.54 25.5141 114.851 26.2414 114.851 29.0469V36.4761H111.578V28.3455C111.578 26.709 110.851 25.5141 109.267 25.5141C108.098 25.5141 106.409 26.2414 106.409 29.0469V36.4761H103.136V22.9684H106.305V24.8387C107.111 23.5918 108.409 22.6567 110.306 22.6567C112.202 22.6567 113.605 23.6178 114.306 25.2024C115.215 23.7737 116.696 22.6567 118.774 22.6567C121.605 22.6567 123.294 24.7867 123.294 27.9558V36.4761H120.047V28.3455ZM132.198 36.7878C128.016 36.7878 125.522 33.7486 125.522 29.7222C125.522 25.6959 128.016 22.6567 132.198 22.6567C136.38 22.6567 138.874 25.592 138.874 29.982V30.7613H128.769C129.055 32.8654 130.25 34.2161 132.198 34.2161C133.783 34.2161 134.848 33.5408 135.419 32.3458H138.614C137.731 35.0214 135.419 36.7878 132.198 36.7878ZM128.795 28.4234H135.575C135.237 26.4492 134.068 25.2283 132.198 25.2283C130.328 25.2283 129.159 26.4492 128.795 28.4234ZM153.243 36.4761L144.671 22.5528V36.4761H141.294V17.7731H145.19L153.736 31.6964V17.7731H157.139V36.4761H153.243ZM166.241 36.7878C162.059 36.7878 159.565 33.7486 159.565 29.7222C159.565 25.6959 162.059 22.6567 166.241 22.6567C170.424 22.6567 172.917 25.592 172.917 29.982V30.7613H162.812C163.098 32.8654 164.293 34.2161 166.241 34.2161C167.826 34.2161 168.891 33.5408 169.462 32.3458H172.657C171.774 35.0214 169.462 36.7878 166.241 36.7878ZM162.838 28.4234H169.618C169.281 26.4492 168.112 25.2283 166.241 25.2283C164.371 25.2283 163.202 26.4492 162.838 28.4234ZM180.402 36.7878C176.818 36.7878 174.428 35.437 174.22 32.0341H177.389C177.597 33.8525 178.688 34.4239 180.506 34.4239C182.065 34.4239 183.13 33.8525 183.13 32.8394C183.13 31.8783 182.74 31.4367 179.961 30.9691C175.727 30.2418 174.532 28.917 174.532 26.709C174.532 24.1633 176.766 22.6567 180.117 22.6567C184.013 22.6567 185.987 24.449 186.039 27.2545H183C182.922 25.4621 181.623 25.0205 180.117 25.0205C178.766 25.0205 177.727 25.566 177.727 26.5791C177.727 27.5662 178.35 27.9558 181.052 28.3974C185.182 29.0728 186.377 30.3716 186.377 32.6316C186.377 35.3331 183.883 36.7878 180.402 36.7878ZM189.646 18.8122H192.893V22.9684H196.322V25.4881H192.893V32.6835C192.893 33.5667 193.231 33.9564 194.192 33.9564H196.322V36.4761H193.387C191.101 36.4761 189.646 35.7487 189.646 33.0212V25.4881H187.282V22.9684H189.646V18.8122Z" fill="#525252"/>
</svg>
