<svg width="109" height="59" viewBox="0 0 109 59" fill="none" xmlns="http://www.w3.org/2000/svg">
<path fill-rule="evenodd" clip-rule="evenodd" d="M29.2233 0C45.3629 0 58.4467 13.0837 58.4467 29.2233C58.4467 45.363 45.3629 58.4467 29.2233 58.4467C13.0837 58.4467 0 45.363 0 29.2233C0 13.0837 13.0837 0 29.2233 0ZM28.1671 2.18677C24.8333 2.65595 21.6587 5.33484 19.1945 9.81524C18.4797 11.1149 17.8347 12.5506 17.2726 14.1009C20.6233 13.2589 24.3042 12.7624 28.1671 12.6857V2.18677ZM14.8028 14.8028C15.5017 12.6093 16.3567 10.5911 17.3435 8.79718C18.565 6.57611 20.0148 4.65813 21.6482 3.18501C12.7659 5.76464 5.76463 12.7659 3.18501 21.6482C4.65812 20.0148 6.57612 18.565 8.79718 17.3435C10.5911 16.3567 12.6093 15.5017 14.8028 14.8028ZM14.1008 17.2726C13.2589 20.6234 12.7625 24.3042 12.6857 28.1671H2.18676C2.65595 24.8331 5.33484 21.6586 9.81525 19.1945C11.1149 18.4797 12.5506 17.8347 14.1008 17.2726ZM14.7987 28.1671C14.8859 23.9515 15.4927 19.9937 16.4969 16.4969C19.9937 15.4928 23.9516 14.8858 28.1671 14.7986V19.3616C26.5944 23.3877 23.3868 26.595 19.3606 28.1671H14.7987ZM12.6857 30.2796H2.18676C2.65595 33.6136 5.33484 36.7879 9.81525 39.2522C11.1149 39.967 12.5506 40.612 14.1008 41.1741C13.2589 37.8233 12.7625 34.1425 12.6857 30.2796ZM16.4969 41.9498C15.4927 38.4529 14.8859 34.4952 14.7987 30.2796H19.3606C23.3868 31.8517 26.5945 35.059 28.1671 39.0851V43.6481C23.9516 43.5609 19.9937 42.9539 16.4969 41.9498ZM14.8028 43.6439C12.6093 42.945 10.5911 42.0899 8.79718 41.1032C6.57612 39.8817 4.65812 38.4319 3.18501 36.7985C5.76463 45.6808 12.7659 52.6821 21.6482 55.2616C20.0148 53.7885 18.565 51.8706 17.3435 49.6494C16.3567 47.8556 15.5017 45.8374 14.8028 43.6439ZM28.1671 56.2599C24.8333 55.7907 21.6587 53.1118 19.1945 48.6314C18.4797 47.3319 17.8347 45.896 17.2726 44.3458C20.6233 45.1878 24.3042 45.6843 28.1671 45.761V56.2599ZM36.7985 55.2616C38.4319 53.7885 39.8817 51.8706 41.1034 49.6494C42.0899 47.8556 42.945 45.8374 43.6439 43.6439C45.8374 42.945 47.8556 42.0899 49.6496 41.1032C51.8705 39.8817 53.7886 38.4319 55.2616 36.7985C52.6821 45.6808 45.6808 52.6821 36.7985 55.2616ZM41.1741 44.3458C40.612 45.896 39.967 47.3319 39.2522 48.6314C36.7881 53.1118 33.6136 55.7907 30.2796 56.2599V45.761C34.1425 45.6843 37.8233 45.1878 41.1741 44.3458ZM44.3458 41.1741C45.896 40.612 47.3319 39.967 48.6314 39.2522C53.1118 36.7879 55.7907 33.6136 56.2599 30.2796H45.761C45.6843 34.1425 45.1878 37.8233 44.3458 41.1741ZM43.6481 30.2796C43.5609 34.4952 42.9539 38.4529 41.9498 41.9498C38.4529 42.9539 34.4952 43.5609 30.2796 43.6481V39.0884C31.8517 35.0608 35.06 31.8521 39.0874 30.2796H43.6481ZM45.761 28.1671H56.2599C55.7907 24.8331 53.1118 21.6586 48.6314 19.1945C47.3319 18.4797 45.896 17.8347 44.3458 17.2726C45.1878 20.6234 45.6843 24.3042 45.761 28.1671ZM41.9498 16.4969C42.9539 19.9937 43.5609 23.9515 43.6481 28.1671H39.0874C35.06 26.5946 31.8517 23.3858 30.2796 19.3583V14.7986C34.4952 14.8858 38.4529 15.4928 41.9498 16.4969ZM43.6439 14.8028C45.8374 15.5017 47.8556 16.3567 49.6496 17.3435C51.8705 18.565 53.7886 20.0148 55.2616 21.6482C52.6821 12.7659 45.6808 5.76464 36.7985 3.18501C38.4319 4.65813 39.8817 6.57611 41.1034 8.79718C42.0899 10.5911 42.945 12.6093 43.6439 14.8028ZM30.2796 2.18677C33.6136 2.65595 36.7881 5.33484 39.2522 9.81524C39.967 11.1149 40.612 12.5506 41.1741 14.1009C37.8233 13.2589 34.1425 12.7624 30.2796 12.6857V2.18677Z" fill="#525252"/>
<path d="M87.5919 39.7231L79.0197 25.7998V39.7231H75.6428V21.0202H79.5392L88.0854 34.9435V21.0202H91.4883V39.7231H87.5919ZM100.746 40.0349C96.4082 40.0349 93.9144 36.9956 93.9144 32.9693C93.9144 28.943 96.4082 25.9038 100.746 25.9038C105.084 25.9038 107.578 28.943 107.578 32.9693C107.578 36.9956 105.084 40.0349 100.746 40.0349ZM97.2394 32.9693C97.2394 35.5669 98.3304 37.3073 100.746 37.3073C103.162 37.3073 104.253 35.5669 104.253 32.9693C104.253 30.3717 103.162 28.6313 100.746 28.6313C98.3304 28.6313 97.2394 30.3717 97.2394 32.9693ZM109.808 39.7231V26.2155H112.977V28.6313C113.886 26.735 115.341 26.0596 117.055 26.0596H118.12V29.0729H116.925C114.639 29.0729 113.081 30.034 113.081 33.1771V39.7231H109.808ZM133.093 39.7231H129.95V37.8529C129.041 39.2036 127.612 40.0349 125.664 40.0349C121.742 40.0349 119.612 36.9956 119.612 32.9693C119.612 28.943 121.742 25.9038 125.664 25.9038C127.534 25.9038 128.911 26.6571 129.82 27.9039V21.0202H133.093V39.7231ZM122.937 32.9693C122.937 35.5669 124.028 37.3073 126.418 37.3073C128.781 37.3073 129.872 35.5669 129.872 32.9693C129.872 30.3717 128.781 28.6313 126.418 28.6313C124.028 28.6313 122.937 30.3717 122.937 32.9693ZM135.885 39.7231V26.2155H139.132V39.7231H135.885ZM135.885 24.0594V21.0202H139.158V24.0594H135.885ZM148.028 40.0349C143.897 40.0349 141.404 36.9956 141.404 32.9693C141.404 28.943 143.897 25.9038 148.028 25.9038C151.742 25.9038 153.872 28.0078 154.288 31.0471H151.015C150.703 29.5404 149.638 28.6313 148.028 28.6313C145.82 28.6313 144.729 30.3717 144.729 32.9693C144.729 35.5669 145.82 37.3073 148.028 37.3073C149.69 37.3073 150.729 36.3462 151.015 34.7357H154.288C153.898 37.8529 151.664 40.0349 148.028 40.0349ZM162.171 39.7231V21.0202H165.652V36.58H174.614V39.7231H162.171ZM176.448 39.7231V26.2155H179.695V39.7231H176.448ZM176.448 24.0594V21.0202H179.721V24.0594H176.448ZM186.382 39.7231L181.239 26.2155H184.746L188.252 36.6579L191.681 26.2155H195.214L190.071 39.7231H186.382ZM196.716 39.7231V26.2155H199.963V39.7231H196.716ZM196.716 24.0594V21.0202H199.989V24.0594H196.716ZM211.742 31.5926C211.742 29.9561 211.015 28.7611 209.145 28.7611C208.028 28.7611 206.261 29.3846 206.027 31.7484V39.7231H202.754V26.2155H205.923V28.0598C206.859 26.8129 208.261 25.9038 210.184 25.9038C213.301 25.9038 214.989 28.0338 214.989 31.2029V39.7231H211.742V31.5926ZM223.876 45.2301C220.083 45.2301 217.979 43.4378 217.771 40.5284H220.966C221.174 42.087 222.343 42.6844 223.98 42.6844C225.642 42.6844 227.434 42.087 227.434 39.3595V37.7489C226.525 38.9698 225.149 39.6972 223.278 39.6972C219.356 39.6972 217.226 36.7359 217.226 32.7875C217.226 28.865 219.356 25.9038 223.278 25.9038C225.226 25.9038 226.629 26.683 227.538 27.9819V26.2155H230.707V39.3595C230.707 43.4118 227.694 45.2301 223.876 45.2301ZM220.551 32.7875C220.551 35.3331 221.642 37.0216 224.032 37.0216C226.395 37.0216 227.486 35.3331 227.486 32.7875C227.486 30.2678 226.395 28.5533 224.032 28.5533C221.642 28.5533 220.551 30.2678 220.551 32.7875Z" fill="#525252"/>
</svg>
