<svg width="232" height="52" viewBox="0 0 232 52" fill="none" xmlns="http://www.w3.org/2000/svg">
<path fill-rule="evenodd" clip-rule="evenodd" d="M28.1589 0.0538397L28.1279 0H15.2528L0 26.1477L10.4702 44.4676L10.4831 44.4454L14.4413 51.3012L44.7121 51.4365L55.3426 33.209H55.2719L59.1989 26.4073L44.1808 0.124127L28.1589 0.0538397ZM38.1186 17.4912H38.1989L30.6304 4.34647L41.6897 4.39496L54.2612 26.3962L50.3263 33.2119L40.0144 33.2173L43.6097 26.9903L38.1186 17.4912ZM25.537 4.28167L30.6976 13.2093L23.5524 13.2091L11.3196 34.4232L10.4852 35.8646L4.94422 26.1695L17.7121 4.28167H25.537ZM20.5753 26.9433L26.0258 17.4908L33.173 17.4912L38.6648 26.9916L35.0687 33.22L24.2023 33.2259L20.5753 26.9433ZM12.9536 40.1609L15.0272 36.565L18.1108 31.2384L21.7308 37.5089L32.5956 37.503L32.5779 37.5334L47.8534 37.5515L42.259 47.1439L16.9197 47.0305L12.9536 40.1609Z" fill="#525252"/>
<path d="M83.4353 36.53C78.7595 36.53 75.5644 34.296 75.4605 29.932H78.9154C79.0193 32.8673 81.1494 33.6726 83.5392 33.6726C85.7731 33.6726 87.3577 32.7374 87.3577 30.997C87.3577 29.6722 86.6044 28.9449 82.656 28.1656C78.1101 27.3344 75.9541 25.8018 75.9541 22.4248C75.9541 19.3337 78.7076 17.2036 82.8898 17.2036C87.9292 17.2036 90.345 19.7233 90.4748 23.4639H87.0979C86.968 21.178 85.6692 20.061 82.8898 20.061C80.8636 20.061 79.5388 20.9442 79.5388 22.3209C79.5388 23.6977 80.1363 24.451 83.9288 25.1783C89.4618 26.1914 90.9424 27.9318 90.9424 30.8412C90.9424 34.4778 87.8253 36.53 83.4353 36.53ZM94.3579 18.5544H97.6049V22.7106H101.034V25.2303H97.6049V32.4257C97.6049 33.3089 97.9426 33.6986 98.9037 33.6986H101.034V36.2183H98.0985C95.8126 36.2183 94.3579 35.4909 94.3579 32.7634V25.2303H91.9941V22.7106H94.3579V18.5544ZM106.35 30.8412C106.35 32.4777 107.077 33.6726 108.947 33.6726C110.064 33.6726 111.831 33.0492 112.065 30.6853V22.7106H115.338V36.2183H112.169V34.3739C111.233 35.6208 109.831 36.53 107.908 36.53C104.791 36.53 103.103 34.3999 103.103 31.2308V22.7106H106.35V30.8412ZM131.056 36.2183H127.913V34.348C127.004 35.6987 125.575 36.53 123.627 36.53C119.704 36.53 117.574 33.4907 117.574 29.4644C117.574 25.4381 119.704 22.3989 123.627 22.3989C125.497 22.3989 126.874 23.1522 127.783 24.399V17.5153H131.056V36.2183ZM120.899 29.4644C120.899 32.0621 121.99 33.8025 124.38 33.8025C126.744 33.8025 127.835 32.0621 127.835 29.4644C127.835 26.8668 126.744 25.1264 124.38 25.1264C121.99 25.1264 120.899 26.8668 120.899 29.4644ZM133.848 36.2183V22.7106H137.095V36.2183H133.848ZM133.848 20.5545V17.5153H137.121V20.5545H133.848ZM146.146 36.53C141.808 36.53 139.314 33.4907 139.314 29.4644C139.314 25.4381 141.808 22.3989 146.146 22.3989C150.484 22.3989 152.978 25.4381 152.978 29.4644C152.978 33.4907 150.484 36.53 146.146 36.53ZM142.639 29.4644C142.639 32.0621 143.73 33.8025 146.146 33.8025C148.562 33.8025 149.653 32.0621 149.653 29.4644C149.653 26.8668 148.562 25.1264 146.146 25.1264C143.73 25.1264 142.639 26.8668 142.639 29.4644ZM155.415 36.2183V17.5153H168.611V20.6585H158.896V25.1004H168.118V28.1137H158.896V36.2183H155.415ZM176.739 36.53C172.401 36.53 169.907 33.4907 169.907 29.4644C169.907 25.4381 172.401 22.3989 176.739 22.3989C181.077 22.3989 183.571 25.4381 183.571 29.4644C183.571 33.4907 181.077 36.53 176.739 36.53ZM173.232 29.4644C173.232 32.0621 174.323 33.8025 176.739 33.8025C179.155 33.8025 180.246 32.0621 180.246 29.4644C180.246 26.8668 179.155 25.1264 176.739 25.1264C174.323 25.1264 173.232 26.8668 173.232 29.4644ZM185.801 36.2183V22.7106H188.97V25.1264C189.879 23.2301 191.334 22.5547 193.048 22.5547H194.113V25.568H192.918C190.632 25.568 189.074 26.5291 189.074 29.6722V36.2183H185.801ZM213.087 28.0877C213.087 26.4512 212.359 25.2563 210.775 25.2563C209.58 25.2563 207.891 25.9836 207.891 28.789V36.2183H204.618V28.0877C204.618 26.4512 203.891 25.2563 202.306 25.2563C201.138 25.2563 199.449 25.9836 199.449 28.789V36.2183H196.176V22.7106H199.345V24.5809C200.15 23.334 201.449 22.3989 203.346 22.3989C205.242 22.3989 206.645 23.36 207.346 24.9445C208.255 23.5158 209.736 22.3989 211.814 22.3989C214.645 22.3989 216.334 24.5289 216.334 27.698V36.2183H213.087V28.0877ZM227.628 36.2183V34.6597C226.459 36.0624 225.03 36.53 223.342 36.53C220.406 36.53 218.406 35.0753 218.406 32.4517C218.406 30.0619 220.095 28.867 223.602 28.2695L227.524 27.5682V26.7889C227.524 25.568 226.797 24.9186 225.056 24.9186C223.576 24.9186 222.329 25.542 222.251 27.0227H219.03C219.082 23.8016 221.783 22.3989 225.03 22.3989C228.875 22.3989 230.719 23.9574 230.719 26.4252V36.2183H227.628ZM221.757 32.3478C221.757 33.4128 222.485 34.1142 224.069 34.1142C225.784 34.1142 227.524 33.205 227.524 30.971V29.7761L224.199 30.4515C222.666 30.7632 221.757 31.1269 221.757 32.3478Z" fill="#525252"/>
</svg>
