<svg width="186" height="53" viewBox="0 0 186 53" fill="none" xmlns="http://www.w3.org/2000/svg">
<path fill-rule="evenodd" clip-rule="evenodd" d="M26.4846 0C41.1116 0 52.9691 11.8575 52.9691 26.4845C52.9691 41.1116 41.1116 52.9692 26.4846 52.9692C11.8575 52.9692 0 41.1116 0 26.4845C0 11.8575 11.8575 0 26.4846 0ZM51.9525 26.4845C51.9525 12.419 40.5501 1.01648 26.4846 1.01648C25.35 1.01648 24.2328 1.09067 23.1374 1.23446C23.8451 1.17258 24.5613 1.141 25.285 1.141C38.7254 1.141 49.621 12.0366 49.621 25.477C49.621 38.9173 38.7254 49.8129 25.285 49.8129C12.5606 49.8129 2.11706 40.0472 1.04056 27.6019C1.62535 41.149 12.7933 51.9526 26.4846 51.9526C40.5501 51.9526 51.9525 40.5501 51.9525 26.4845ZM48.6045 25.477C48.6045 12.5979 38.1641 2.15749 25.285 2.15749C24.2393 2.15749 23.2096 2.22633 22.2003 2.3597C22.8218 2.30741 23.4506 2.28073 24.0856 2.28073C36.3394 2.28073 46.273 12.2144 46.273 24.4681C46.273 36.7219 36.3394 46.6555 24.0856 46.6555C12.4993 46.6555 2.9873 37.7746 1.98544 26.4486C2.49482 38.877 12.7316 48.7964 25.285 48.7964C38.1641 48.7964 48.6045 38.3559 48.6045 25.477ZM24.0856 3.29723C35.7779 3.29723 45.2565 12.7758 45.2565 24.4681C45.2565 36.1604 35.7779 45.6389 24.0856 45.6389C12.6642 45.6389 3.35506 36.5945 2.9299 25.277C3.84784 35.4922 12.4321 43.4979 22.8862 43.4979C33.9525 43.4979 42.9237 34.5269 42.9237 23.4605C42.9237 12.394 33.9525 3.423 22.8862 3.423C22.3137 3.423 21.7468 3.44702 21.1865 3.49407C22.1343 3.36428 23.1021 3.29723 24.0856 3.29723ZM41.9071 23.4605C41.9071 12.9555 33.3912 4.43949 22.8862 4.43949C21.9986 4.43949 21.1252 4.50028 20.27 4.61793C20.737 4.58138 21.2089 4.56277 21.6853 4.56277C31.5652 4.56277 39.5743 12.5718 39.5743 22.4517C39.5743 32.3314 31.5652 40.3405 21.6853 40.3405C12.3863 40.3405 4.74446 33.2452 3.87827 24.1731C4.25301 34.3479 12.6197 42.4815 22.8862 42.4815C33.3912 42.4815 41.9071 33.9655 41.9071 23.4605ZM21.6853 5.57924C31.0037 5.57924 38.5577 13.1333 38.5577 22.4517C38.5577 31.77 31.0037 39.3241 21.6853 39.3241C12.5506 39.3241 5.1113 32.0647 4.82174 23.0003C5.60379 30.9623 12.3184 37.1831 20.4859 37.1831C29.1791 37.1831 36.2262 30.1359 36.2262 21.4428C36.2262 12.7497 29.1791 5.70249 20.4859 5.70249C20.0873 5.70249 19.6921 5.71731 19.3009 5.74643C20.0799 5.63624 20.8759 5.57924 21.6853 5.57924ZM35.2098 21.4428C35.2098 13.311 28.6176 6.71898 20.4859 6.71898C19.7436 6.71898 19.0142 6.77391 18.3014 6.87992C18.6268 6.85662 18.9552 6.84476 19.2866 6.84476C26.7923 6.84476 32.877 12.9294 32.877 20.4351C32.877 27.941 26.7923 34.0255 19.2866 34.0255C12.2532 34.0255 6.46774 28.6829 5.76725 21.8345C5.97492 29.7852 12.4852 36.1666 20.4859 36.1666C28.6176 36.1666 35.2098 29.5745 35.2098 21.4428ZM19.2866 7.86125C26.2309 7.86125 31.8604 13.4908 31.8604 20.4351C31.8604 27.3796 26.2309 33.0091 19.2866 33.0091C12.4305 33.0091 6.85607 27.522 6.71529 20.6997C7.34864 26.4196 12.1983 30.8681 18.0871 30.8681C24.4062 30.8681 29.5289 25.7455 29.5289 19.4263C29.5289 13.1072 24.4062 7.98449 18.0871 7.98449C17.8454 7.98449 17.6055 7.99199 17.3676 8.00676C17.9932 7.91094 18.634 7.86125 19.2866 7.86125ZM28.5124 19.4263C28.5124 13.6686 23.8449 9.00099 18.0871 9.00099C17.5089 9.00099 16.9417 9.04806 16.389 9.13857C16.5537 9.12989 16.7195 9.1255 16.8864 9.1255C22.0188 9.1255 26.1795 13.2862 26.1795 18.4187C26.1795 23.5512 22.0188 27.712 16.8864 27.712C12.1405 27.712 8.2256 24.1545 7.66259 19.5609C7.73467 25.2567 12.3743 29.8517 18.0871 29.8517C23.8449 29.8517 28.5124 25.1841 28.5124 19.4263ZM16.8864 10.142C21.4574 10.142 25.1631 13.8475 25.1631 18.4187C25.1631 22.9899 21.4574 26.6954 16.8864 26.6954C12.3152 26.6954 8.60956 22.9899 8.60956 18.4187C8.60956 18.4078 8.60959 18.3968 8.60963 18.3859C9.08554 21.8693 12.0728 24.5533 15.6869 24.5533C19.6321 24.5533 22.8303 21.3551 22.8303 17.4099C22.8303 13.4646 19.6321 10.2665 15.6869 10.2665C15.5977 10.2665 15.5088 10.2681 15.4204 10.2714C15.8961 10.1864 16.3861 10.142 16.8864 10.142ZM21.8137 17.4099C21.8137 14.0261 19.0707 11.283 15.6869 11.283C12.3031 11.283 9.56 14.0261 9.56 17.4099C9.56 20.7936 12.3031 23.5367 15.6869 23.5367C19.0707 23.5367 21.8137 20.7936 21.8137 17.4099Z" fill="#525252"/>
<path d="M84.9977 36.9844L81.5169 22.6974L78.036 36.9844H74.1396L68.8145 18.2814H72.5031L76.2177 32.6723L79.7245 18.2814H83.3352L86.842 32.6723L90.5566 18.2814H94.2453L88.9201 36.9844H84.9977ZM102.169 37.2961C97.8306 37.2961 95.3369 34.2569 95.3369 30.2305C95.3369 26.2042 97.8306 23.165 102.169 23.165C106.507 23.165 109 26.2042 109 30.2305C109 34.2569 106.507 37.2961 102.169 37.2961ZM98.6618 30.2305C98.6618 32.8282 99.7528 34.5686 102.169 34.5686C104.584 34.5686 105.675 32.8282 105.675 30.2305C105.675 27.6329 104.584 25.8925 102.169 25.8925C99.7528 25.8925 98.6618 27.6329 98.6618 30.2305ZM117.491 37.2961C113.153 37.2961 110.659 34.2569 110.659 30.2305C110.659 26.2042 113.153 23.165 117.491 23.165C121.829 23.165 124.322 26.2042 124.322 30.2305C124.322 34.2569 121.829 37.2961 117.491 37.2961ZM113.984 30.2305C113.984 32.8282 115.075 34.5686 117.491 34.5686C119.906 34.5686 120.997 32.8282 120.997 30.2305C120.997 27.6329 119.906 25.8925 117.491 25.8925C115.075 25.8925 113.984 27.6329 113.984 30.2305ZM139.462 36.9844H136.319V35.1141C135.41 36.4648 133.981 37.2961 132.033 37.2961C128.111 37.2961 125.981 34.2569 125.981 30.2305C125.981 26.2042 128.111 23.165 132.033 23.165C133.904 23.165 135.28 23.9183 136.189 25.1652V18.2814H139.462V36.9844ZM129.306 30.2305C129.306 32.8282 130.397 34.5686 132.787 34.5686C135.15 34.5686 136.241 32.8282 136.241 30.2305C136.241 27.6329 135.15 25.8925 132.787 25.8925C130.397 25.8925 129.306 27.6329 129.306 30.2305ZM142.488 36.9844V18.2814H145.969V33.8412H154.931V36.9844H142.488ZM165.285 36.9844V35.4258C164.116 36.8285 162.687 37.2961 160.998 37.2961C158.063 37.2961 156.063 35.8414 156.063 33.2178C156.063 30.828 157.751 29.6331 161.258 29.0356L165.181 28.3343V27.555C165.181 26.3341 164.453 25.6847 162.713 25.6847C161.232 25.6847 159.985 26.3081 159.907 27.7888H156.686C156.738 24.5677 159.44 23.165 162.687 23.165C166.531 23.165 168.376 24.7236 168.376 27.1913V36.9844H165.285ZM159.414 33.1139C159.414 34.1789 160.141 34.8803 161.726 34.8803C163.44 34.8803 165.181 33.9711 165.181 31.7372V30.5423L161.856 31.2176C160.323 31.5294 159.414 31.893 159.414 33.1139ZM170.819 36.9844V18.2814H174.092V25.1652C175.001 23.9183 176.377 23.165 178.248 23.165C182.17 23.165 184.3 26.2042 184.3 30.2305C184.3 34.2569 182.17 37.2961 178.248 37.2961C176.3 37.2961 174.871 36.4648 173.962 35.1141V36.9844H170.819ZM174.04 30.2305C174.04 32.8282 175.131 34.5686 177.494 34.5686C179.884 34.5686 180.975 32.8282 180.975 30.2305C180.975 27.6329 179.884 25.8925 177.494 25.8925C175.131 25.8925 174.04 27.6329 174.04 30.2305Z" fill="#525252"/>
</svg>
